<?xml version="1.0" standalone="no"?>
<!DOCTYPE svg PUBLIC "-//W3C//DTD SVG 20010904//EN"
 "http://www.w3.org/TR/2001/REC-SVG-20010904/DTD/svg10.dtd">
<svg version="1.0" xmlns="http://www.w3.org/2000/svg"
 width="230.000000pt" height="230.000000pt" viewBox="0 0 230.000000 230.000000"
 preserveAspectRatio="xMidYMid meet">
<g transform="translate(0.000000,230.000000) scale(0.100000,-0.100000)"
fill="#000000" stroke="none">
<path d="M1862 2229 c-17 -5 -58 -35 -90 -67 -45 -44 -61 -68 -70 -104 -29
-114 -1 -221 75 -288 133 -117 334 -82 423 74 40 69 43 172 6 244 -51 99 -137
153 -243 151 -37 0 -83 -5 -101 -10z m208 -49 c77 -39 123 -117 122 -206 -2
-99 -37 -163 -116 -207 -59 -33 -105 -40 -163 -26 -93 24 -158 82 -181 165
-18 64 -14 101 18 168 30 62 70 98 135 122 42 15 140 7 185 -16z"/>
<path d="M1054 1700 c-99 -39 -184 -157 -184 -255 0 -103 84 -221 182 -255 74
-26 123 -25 194 1 150 56 215 230 141 376 -62 122 -211 182 -333 133z m191
-41 c59 -28 108 -86 130 -154 60 -193 -160 -367 -344 -271 -64 34 -110 108
-118 191 -5 56 -3 71 21 119 27 55 77 102 131 123 49 19 130 15 180 -8z"/>
<path d="M1930 1563 c-105 -17 -186 -78 -219 -169 -20 -53 -21 -74 -21 -650 0
-637 0 -637 49 -664 12 -6 104 -10 226 -10 l207 0 29 29 29 29 0 617 c0 702 5
660 -88 747 -57 53 -142 82 -212 71z m158 -70 c45 -34 67 -59 86 -99 13 -26
15 -120 16 -640 1 -586 1 -610 -18 -628 -17 -18 -33 -19 -213 -17 -191 2 -194
3 -216 26 l-23 24 0 581 c0 435 3 591 13 622 16 54 91 135 142 154 63 23 167
12 213 -23z"/>
<path d="M230 1154 c-54 -23 -95 -59 -129 -113 -27 -41 -32 -61 -35 -123 -8
-146 67 -244 217 -284 50 -13 123 -3 177 25 86 45 145 146 143 246 -2 107 -53
188 -146 235 -49 24 -72 30 -126 30 -36 -1 -82 -8 -101 -16z m211 -47 c78 -40
117 -96 126 -178 11 -107 -39 -197 -132 -240 -110 -51 -226 -20 -298 81 -35
50 -37 58 -37 127 0 61 4 82 25 117 34 57 63 83 121 106 73 29 122 25 195 -13z"/>
<path d="M1080 1031 c-76 -23 -144 -83 -181 -157 -24 -48 -24 -54 -27 -374 -2
-178 -1 -334 2 -346 4 -13 18 -36 32 -53 l26 -31 211 0 c224 1 227 1 260 50
15 22 17 60 17 355 0 387 -2 398 -84 480 -72 72 -172 101 -256 76z m166 -52
c59 -28 110 -88 129 -151 13 -44 15 -108 15 -362 l-1 -309 -27 -26 c-19 -19
-36 -26 -57 -25 -16 1 -103 3 -192 3 -153 1 -163 2 -183 23 -19 21 -20 34 -20
343 0 272 3 329 16 370 18 52 79 119 129 141 47 21 142 17 191 -7z"/>
<path d="M280 478 c-66 -12 -147 -72 -182 -135 -25 -45 -30 -65 -32 -135 -2
-79 -1 -84 25 -111 l27 -27 215 0 215 0 26 30 c14 17 28 46 32 64 7 38 -11
137 -32 177 -22 44 -75 91 -129 115 -62 27 -107 33 -165 22z m145 -52 c94 -44
135 -104 143 -208 4 -61 3 -69 -19 -88 -23 -21 -34 -22 -219 -20 -233 1 -230
0 -230 98 0 174 172 290 325 218z"/>
</g>
</svg>
